<?xml version="1.0" standalone="no"?>
<!DOCTYPE svg PUBLIC "-//W3C//DTD SVG 20010904//EN"
 "http://www.w3.org/TR/2001/REC-SVG-20010904/DTD/svg10.dtd">
<svg version="1.0" xmlns="http://www.w3.org/2000/svg"
 width="353.000000pt" height="353.000000pt" viewBox="0 0 353.000000 353.000000"
 preserveAspectRatio="xMidYMid meet">
<metadata>
Created by potrace 1.11, written by Peter Selinger 2001-2013
</metadata>
<g transform="translate(0.000000,353.000000) scale(0.100000,-0.100000)"
fill="#000000" stroke="none">
<path d="M2277 3412 c-14 -3 -17 -17 -17 -93 0 -64 -3 -89 -12 -90 -7 0 -190
-1 -406 -1 -338 0 -394 -2 -399 -15 -5 -12 -8 -181 -4 -234 1 -14 39 -16 339
-17 185 0 370 -1 410 -1 l72 -1 0 -109 0 -109 -368 0 c-408 0 -417 -1 -442
-63 -11 -25 -13 -169 -12 -688 0 -361 1 -666 1 -678 1 -13 14 -37 30 -55 l29
-33 204 -2 c112 -1 283 -3 381 -3 l177 0 0 -553 0 -552 218 1 c119 1 219 2
222 3 3 0 5 249 5 551 0 364 3 550 10 550 5 0 174 1 374 1 222 0 372 4 384 10
10 6 27 25 37 42 19 31 20 56 20 710 0 620 -1 681 -17 708 -30 50 -44 51 -438
51 -201 -1 -366 2 -366 6 -1 4 -2 53 -3 110 l-2 102 26 0 c14 1 200 1 413 2
l388 1 -2 51 c-3 88 -35 143 -109 189 -34 21 -45 22 -350 24 -173 1 -327 2
-341 2 l-26 1 2 90 c1 57 -3 90 -9 91 -39 2 -406 3 -419 1z m-17 -1128 l0
-214 -203 0 -202 0 1 213 c1 116 2 212 3 213 0 0 91 1 201 1 l200 0 0 -213z
m851 165 c0 -27 1 -112 1 -189 0 -77 -1 -151 -1 -165 l-1 -25 -203 0 -202 0 1
213 c1 116 2 213 3 213 0 1 91 2 201 1 l200 0 1 -48z m-878 -558 l27 -1 0
-210 0 -210 -22 -1 c-13 0 -104 -1 -203 -1 l-180 -1 0 211 c-1 178 2 212 14
214 12 3 269 2 364 -1z m878 -61 c4 -292 3 -353 -4 -357 -14 -8 -386 -7 -395
1 -4 4 -7 98 -7 209 0 187 1 202 18 207 10 3 101 5 203 5 l184 0 1 -65z"/>
<path d="M7 3221 c-3 -5 0 -236 2 -253 1 -4 159 -7 352 -7 193 1 353 -2 356
-5 3 -3 7 -376 7 -828 l1 -823 218 -3 217 -3 1 23 c0 13 1 406 1 873 1 831 1
851 -19 896 -11 25 -36 60 -54 77 -62 59 -84 61 -607 60 -260 -1 -474 -4 -475
-7z"/>
<path d="M9 2718 c-5 -93 1 -2117 6 -2149 11 -69 68 -179 122 -232 76 -77 159
-119 261 -132 l50 -6 0 1265 0 1266 -219 0 c-168 0 -219 -3 -220 -12z"/>
<path d="M723 602 l0 -412 202 0 c152 0 206 3 219 13 18 13 19 38 20 401 0
213 -2 393 -6 399 -4 7 -81 11 -221 11 l-214 1 0 -413z"/>
<path d="M1439 1010 c-1 -6 -1 -709 0 -733 1 -11 16 -34 35 -53 l34 -34 341 0
c188 0 341 3 342 8 0 10 0 254 0 270 -1 9 -38 12 -151 12 l-150 0 0 265 c0
245 -1 265 -17 266 -78 4 -433 3 -434 -1z"/>
<path d="M3093 1010 c-17 -5 -18 -21 -18 -255 1 -137 -1 -256 -3 -262 -3 -10
-42 -13 -148 -13 -79 0 -145 -3 -145 -7 -1 -5 -2 -70 -3 -146 l-1 -137 328 0
c279 0 334 2 362 16 63 30 65 41 65 443 0 282 -3 361 -12 362 -59 4 -411 3
-425 -1z"/>
</g>
</svg>
