<?xml version="1.0" encoding="utf-8"?>
<!-- Generator: Adobe Illustrator 25.0.0, SVG Export Plug-In . SVG Version: 6.00 Build 0)  -->
<svg version="1.1" id="Layer_1" focusable="false" xmlns="http://www.w3.org/2000/svg" xmlns:xlink="http://www.w3.org/1999/xlink"
	 x="0px" y="0px" viewBox="0 0 448 512" style="enable-background:new 0 0 448 512;" xml:space="preserve">
<style type="text/css">
	.st0{fill:#FFFFFF;}
</style>
<g>
	<path d="M400,32H48C21.5,32,0,53.5,0,80v352c0,26.5,21.5,48,48,48h352c26.5,0,48-21.5,48-48V80C448,53.5,426.5,32,400,32z M352,392
		c0,13.3-10.7,24-24,24H120c-13.3,0-24-10.7-24-24V120c0-13.2,10.7-24,24-24h120v89.2c0,14.1,11.4,25.5,25.5,25.5H352V392z
		 M352,183.7h-77.1c-4.4,0-7.9-3.5-7.9-7.9V96h5.2c3.7,0,7.3,1.5,9.8,4.2l66.2,69c2.4,2.5,3.8,5.9,3.8,9.4V183.7z"/>
	<g>
		<g>
			<path class="st0" d="M283.5,263v10.4c0,3.8-3.1,7-7,7h-105c-3.8,0-7-3.1-7-7V263c0-3.8,3.1-7,7-7h105
				C280.3,256,283.5,259.1,283.5,263z"/>
			<path class="st0" d="M283.5,304.8v10.4c0,3.8-3.1,7-7,7h-105c-3.8,0-7-3.1-7-7v-10.4c0-3.8,3.1-6.9,7-6.9h105
				C280.3,297.9,283.5,301,283.5,304.8z"/>
			<path class="st0" d="M283.5,346.8v10.4c0,3.8-3.1,7-7,7h-105c-3.8,0-7-3.1-7-7v-10.4c0-3.8,3.1-7,7-7h105
				C280.3,339.8,283.5,342.9,283.5,346.8z"/>
		</g>
		<g>
			<path d="M283.5,263v10.4c0,3.8-3.1,7-7,7h-105c-3.8,0-7-3.1-7-7V263c0-3.8,3.1-7,7-7h105C280.3,256,283.5,259.1,283.5,263z"/>
			<path d="M283.5,346.8v10.4c0,3.8-3.1,7-7,7h-105c-3.8,0-7-3.1-7-7v-10.4c0-3.8,3.1-7,7-7h105
				C280.3,339.8,283.5,342.9,283.5,346.8z"/>
			<path d="M283.5,304.8v10.4c0,3.8-3.1,7-7,7h-105c-3.8,0-7-3.1-7-7v-10.4c0-3.8,3.1-6.9,7-6.9h105
				C280.3,297.9,283.5,301,283.5,304.8z"/>
		</g>
	</g>
</g>
</svg>
